<svg width="2315" height="2454" viewBox="0 0 2315 2454" fill="none" xmlns="http://www.w3.org/2000/svg">
<g clip-path="url(#clip0_4_2)">
<path d="M714 834C928.024 834 928.024 834 948.75 850.312C954.152 854.561 959.573 858.784 965 863C972.123 868.534 979.227 874.093 986.314 879.673C989.208 881.951 992.104 884.225 995 886.5C996.167 887.417 997.333 888.333 998.5 889.25C999.366 889.931 999.366 889.931 1000.25 890.625C1019.5 905.75 1019.5 905.75 1021.25 907.124C1022.42 908.043 1023.59 908.962 1024.76 909.882C1027.63 912.134 1030.49 914.388 1033.36 916.644C1039.89 921.784 1046.44 926.901 1053 932C1060.12 937.534 1067.23 943.093 1074.31 948.673C1077.21 950.951 1080.1 953.225 1083 955.5C1084.17 956.417 1085.33 957.333 1086.5 958.25C1087.37 958.931 1087.37 958.931 1088.25 959.625C1107.5 974.75 1107.5 974.75 1109.25 976.126C1110.41 977.039 1111.57 977.951 1112.74 978.864C1116.35 981.699 1119.95 984.539 1123.56 987.382C1125.32 988.77 1127.09 990.151 1128.86 991.531C1130.76 993.023 1132.64 994.538 1134.48 996.094C1135.17 996.661 1135.85 997.228 1136.56 997.812C1137.12 998.293 1137.68 998.774 1138.25 999.269C1140.06 1000.23 1140.06 1000.23 1142.31 999.445C1145.65 997.652 1148.51 995.442 1151.44 993.062C1152.69 992.06 1153.95 991.057 1155.2 990.055C1155.83 989.544 1156.47 989.033 1157.12 988.507C1159.98 986.212 1162.87 983.95 1165.75 981.687C1166.32 981.242 1166.88 980.797 1167.47 980.338C1173.07 975.937 1178.69 971.569 1184.32 967.199C1191.23 961.825 1198.12 956.418 1205 951C1213.42 944.369 1221.86 937.767 1230.33 931.192C1234.9 927.642 1239.45 924.079 1244 920.5C1249.32 916.313 1254.66 912.152 1260 908C1267.69 902.027 1275.35 896.023 1283 890C1291.42 883.371 1299.86 876.772 1308.32 870.199C1312.97 866.582 1317.62 862.955 1322.25 859.312C1322.81 858.872 1323.37 858.431 1323.95 857.977C1326.82 855.718 1329.69 853.456 1332.55 851.191C1333.45 850.484 1333.45 850.484 1334.37 849.762C1336 848.475 1337.63 847.187 1339.26 845.898C1396.73 801.388 1484.31 834 1557 834C1557 1053.12 1557 1272.24 1557 1498C1502.22 1498 1447.44 1498 1391 1498C1391 1331.35 1391 1164.7 1391 993C1384.08 998.187 1377.18 1003.36 1370.38 1008.69C1368.82 1009.9 1367.27 1011.11 1365.71 1012.32C1364.93 1012.93 1364.15 1013.54 1363.35 1014.17C1359.57 1017.12 1355.78 1020.06 1352 1023C1350.51 1024.16 1349.01 1025.33 1347.52 1026.49C1344.46 1028.86 1341.41 1031.23 1338.36 1033.61C1331.56 1038.89 1324.77 1044.17 1318 1049.5C1310.46 1055.43 1302.89 1061.32 1295.31 1067.2C1291.54 1070.13 1287.77 1073.07 1284 1076C1282.5 1077.17 1281 1078.33 1279.5 1079.5C1278.76 1080.08 1278.02 1080.65 1277.25 1081.25C1234.5 1114.5 1234.5 1114.5 1232.25 1116.25C1230.75 1117.41 1229.26 1118.58 1227.76 1119.74C1223.96 1122.7 1220.16 1125.65 1216.36 1128.61C1208.88 1134.42 1201.41 1140.24 1193.98 1146.1C1189.64 1149.51 1185.27 1152.88 1180.88 1156.24C1177.56 1158.79 1174.26 1161.36 1170.97 1163.96C1169.24 1165.32 1167.51 1166.68 1165.77 1168.03C1162.99 1170.21 1160.25 1172.43 1157.51 1174.66C1155.99 1175.88 1154.46 1177.09 1152.94 1178.31C1152.22 1178.91 1151.51 1179.5 1150.77 1180.11C1145.76 1184.08 1145.76 1184.08 1142.52 1183.75C1138.84 1181.19 1135.31 1178.5 1131.81 1175.69C1125.7 1170.85 1119.53 1166.15 1113.19 1161.62C1106.55 1156.89 1100.03 1152.02 1093.56 1147.06C1083.8 1139.58 1073.92 1132.27 1064 1125C1053.17 1117.07 1042.42 1109.05 1031.77 1100.89C1026.24 1096.67 1020.66 1092.54 1015 1088.5C1007.52 1083.15 1000.19 1077.61 992.891 1072.02C984.014 1065.22 975.018 1058.6 966 1052C955.076 1044 944.234 1035.91 933.485 1027.68C928.713 1024.04 923.913 1020.45 919 1017C912.337 1012.32 905.876 1007.38 899.424 1002.41C890.38 995.464 881.189 988.771 872 982C871.67 1152.28 871.34 1322.56 871 1498C819.19 1498 767.38 1498 714 1498C714 1278.88 714 1059.76 714 834Z" fill="#07A140"/>
<path d="M906 1059C908.766 1060.35 911.065 1061.72 913.434 1063.69C914.076 1064.22 914.718 1064.74 915.379 1065.29C916.058 1065.85 916.738 1066.42 917.438 1067C922.401 1071.08 927.386 1075.11 932.5 1079C938.087 1083.26 943.543 1087.66 948.984 1092.11C955.587 1097.5 962.283 1102.76 969 1108C976.33 1113.72 983.616 1119.49 990.813 1125.38C996.273 1129.84 1001.81 1134.18 1007.44 1138.44C1014.04 1143.44 1020.46 1148.61 1026.83 1153.9C1033.45 1159.4 1040.21 1164.71 1047 1170C1055.08 1176.3 1063.09 1182.68 1071.03 1189.16C1077.06 1194.07 1083.16 1198.88 1089.29 1203.66C1091.01 1205.01 1092.73 1206.36 1094.46 1207.71C1095 1208.13 1095.54 1208.56 1096.1 1208.99C1097.26 1209.9 1098.41 1210.82 1099.55 1211.74C1102.57 1214.18 1105.6 1216.42 1108.91 1218.45C1114.48 1222.04 1119.84 1225.57 1121.35 1232.36C1122.03 1237.69 1121.84 1243.01 1121.68 1248.37C1121.68 1250.46 1121.68 1252.55 1121.69 1254.63C1121.69 1259.17 1121.64 1263.71 1121.56 1268.25C1121.43 1275.54 1121.39 1282.83 1121.37 1290.13C1121.35 1298.12 1121.31 1306.1 1121.23 1314.09C1121.22 1314.78 1121.21 1315.48 1121.21 1316.2C1121.2 1317.26 1121.2 1317.26 1121.19 1318.34C1120.98 1339.12 1120.97 1359.9 1121 1380.69C1121.01 1385.21 1121.02 1389.73 1121.02 1394.26C1121.03 1396.06 1121.03 1397.87 1121.03 1399.67C1121.03 1400.56 1121.03 1401.45 1121.03 1402.37C1121.04 1404.17 1121.04 1405.97 1121.04 1407.77C1121.08 1437.85 1121.03 1467.92 1121 1498C1094.27 1498 1067.54 1498 1040 1498C1040.05 1491.23 1040.1 1484.46 1040.16 1477.49C1040.32 1455.82 1040.43 1434.14 1040.51 1412.47C1040.52 1409.1 1040.54 1405.73 1040.55 1402.36C1040.55 1401.69 1040.55 1401.02 1040.56 1400.33C1040.6 1389.48 1040.68 1378.64 1040.77 1367.79C1040.87 1356.65 1040.92 1345.52 1040.94 1334.38C1040.95 1328.13 1040.98 1321.87 1041.06 1315.62C1041.13 1309.73 1041.15 1303.85 1041.13 1297.96C1041.13 1295.8 1041.15 1293.64 1041.19 1291.48C1041.75 1280.07 1041.75 1280.07 1037.8 1269.75C1035.3 1267.47 1032.9 1265.72 1030 1264C1029.05 1263.2 1028.09 1262.4 1027.11 1261.57C1026.33 1260.95 1025.55 1260.33 1024.75 1259.69C1019.93 1255.79 1015.22 1251.78 1010.56 1247.69C1004.57 1242.49 998.333 1237.87 992 1233C992 1320.45 992 1407.9 992 1498C963.29 1498 934.58 1498 905 1498C904.958 1463.82 904.958 1463.82 904.949 1449.97C904.949 1449.12 904.948 1448.27 904.948 1447.39C904.944 1440.97 904.941 1434.55 904.938 1428.12C904.937 1427.21 904.937 1426.3 904.936 1425.36C904.899 1344.73 905.173 1264.1 905.491 1183.47C905.5 1181.18 905.509 1178.89 905.518 1176.59C905.673 1137.4 905.833 1098.2 906 1059Z" fill="#07A140"/>
<path d="M1362 1157C1362.26 1168.95 1362.45 1180.9 1362.57 1192.86C1362.63 1198.41 1362.7 1203.96 1362.83 1209.51C1362.95 1214.87 1363.02 1220.23 1363.04 1225.6C1363.06 1227.64 1363.1 1229.68 1363.16 1231.72C1363.63 1248.52 1363.63 1248.52 1359.66 1253.39C1356.9 1255.94 1354.15 1257.97 1351 1260C1349.24 1261.42 1347.48 1262.85 1345.75 1264.31C1344.85 1265.04 1343.94 1265.77 1343.01 1266.53C1339.49 1269.42 1336.06 1272.39 1332.63 1275.38C1326.79 1280.46 1320.92 1285.48 1315 1290.46C1311.65 1293.29 1308.32 1296.14 1305 1299C1309.09 1313.28 1313.36 1327.5 1317.79 1341.68C1320.04 1348.88 1322.23 1356.09 1324.34 1363.33C1325.8 1368.36 1327.34 1373.36 1328.92 1378.35C1330.97 1384.87 1332.99 1391.4 1335 1397.94C1335.32 1398.97 1335.64 1400.01 1335.97 1401.07C1337.81 1407.04 1339.59 1413.01 1341.34 1419C1344.28 1429.04 1347.39 1439.02 1350.5 1449C1353.87 1459.81 1357.23 1470.62 1360.38 1481.5C1361.23 1484.42 1362.11 1487.3 1363.14 1490.16C1364 1493 1364 1493 1364 1498C1337.27 1498 1310.54 1498 1283 1498C1270.51 1458.46 1270.51 1458.46 1265.48 1439.13C1264.14 1434.03 1262.71 1429.01 1261 1424.02C1258.92 1417.89 1257.25 1411.7 1255.63 1405.44C1253.35 1396.81 1250.9 1388.29 1248.14 1379.81C1245.4 1371.31 1243.19 1362.66 1241 1354C1240.01 1354.66 1239.02 1355.32 1238 1356C1237.54 1358.57 1237.54 1358.57 1237.6 1361.63C1237.58 1363.43 1237.58 1363.43 1237.56 1365.26C1237.56 1366.59 1237.57 1367.93 1237.57 1369.26C1237.56 1370.66 1237.55 1372.06 1237.54 1373.46C1237.51 1377.27 1237.5 1381.07 1237.49 1384.88C1237.48 1388.85 1237.46 1392.83 1237.43 1396.8C1237.39 1404.33 1237.36 1411.86 1237.34 1419.39C1237.31 1429.56 1237.25 1439.73 1237.2 1449.91C1237.11 1465.94 1237.06 1481.97 1237 1498C1210.27 1498 1183.54 1498 1156 1498C1155.67 1463.55 1155.39 1429.11 1155.23 1394.66C1155.22 1390.59 1155.2 1386.52 1155.18 1382.45C1155.17 1381.64 1155.17 1380.83 1155.16 1379.99C1155.1 1366.89 1154.98 1353.78 1154.84 1340.67C1154.7 1327.22 1154.62 1313.76 1154.59 1300.31C1154.57 1292.01 1154.5 1283.71 1154.38 1275.41C1154.3 1269.72 1154.28 1264.02 1154.3 1258.32C1154.31 1255.04 1154.28 1251.76 1154.21 1248.48C1153.78 1227.76 1153.78 1227.76 1159.29 1221.84C1162.37 1219.12 1165.66 1216.97 1169.25 1214.99C1171.55 1213.69 1173.57 1212.11 1175.62 1210.44C1176.89 1209.48 1178.16 1208.52 1179.44 1207.56C1185.07 1203.29 1190.6 1198.92 1196.06 1194.44C1201.94 1189.61 1207.93 1184.99 1214.04 1180.48C1219.59 1176.36 1224.98 1172.06 1230.3 1167.66C1234.79 1164 1234.79 1164 1237 1164C1237 1193.04 1237 1222.08 1237 1252C1246.71 1244.72 1256.4 1237.42 1266 1230C1268.06 1228.42 1270.12 1226.83 1272.19 1225.25C1277.39 1221.25 1282.57 1217.22 1287.75 1213.19C1295.82 1206.9 1303.93 1200.68 1312.06 1194.48C1317.05 1190.67 1322.02 1186.83 1327 1183C1329.7 1180.92 1332.41 1178.84 1335.12 1176.76C1337.89 1174.63 1340.66 1172.49 1343.43 1170.36C1348.19 1166.69 1352.96 1163.01 1357.75 1159.38C1358.67 1158.68 1358.67 1158.68 1359.61 1157.96C1361 1157 1361 1157 1362 1157Z" fill="#07A140"/>
<path d="M714 834C928.024 834 928.024 834 948.75 850.312C954.152 854.561 959.573 858.784 965 863C972.123 868.534 979.227 874.093 986.314 879.673C989.208 881.951 992.104 884.225 995 886.5C996.167 887.417 997.333 888.333 998.5 889.25C999.366 889.931 999.366 889.931 1000.25 890.625C1019.5 905.75 1019.5 905.75 1021.25 907.124C1022.42 908.043 1023.59 908.962 1024.76 909.882C1027.63 912.134 1030.49 914.388 1033.36 916.644C1039.89 921.784 1046.44 926.901 1053 932C1060.12 937.534 1067.23 943.093 1074.31 948.673C1077.21 950.951 1080.1 953.225 1083 955.5C1084.17 956.417 1085.33 957.333 1086.5 958.25C1087.37 958.931 1087.37 958.931 1088.25 959.625C1107.5 974.75 1107.5 974.75 1109.25 976.126C1110.41 977.039 1111.57 977.951 1112.74 978.864C1116.35 981.699 1119.95 984.539 1123.56 987.382C1125.32 988.77 1127.09 990.151 1128.86 991.531C1130.76 993.023 1132.64 994.538 1134.48 996.094C1135.17 996.661 1135.85 997.228 1136.56 997.812C1137.12 998.293 1137.68 998.774 1138.25 999.269C1140.06 1000.23 1140.06 1000.23 1142.31 999.445C1145.65 997.652 1148.51 995.442 1151.44 993.062C1152.69 992.06 1153.95 991.057 1155.2 990.055C1155.83 989.544 1156.47 989.033 1157.12 988.507C1159.98 986.212 1162.87 983.95 1165.75 981.687C1166.32 981.242 1166.88 980.797 1167.47 980.338C1173.07 975.937 1178.69 971.569 1184.32 967.199C1191.23 961.825 1198.12 956.418 1205 951C1213.42 944.369 1221.86 937.767 1230.33 931.192C1234.9 927.642 1239.45 924.079 1244 920.5C1249.32 916.313 1254.66 912.152 1260 908C1267.69 902.027 1275.35 896.023 1283 890C1291.42 883.371 1299.86 876.772 1308.32 870.199C1312.97 866.582 1317.62 862.955 1322.25 859.312C1322.81 858.872 1323.37 858.431 1323.95 857.977C1326.82 855.718 1329.69 853.456 1332.55 851.191C1333.45 850.484 1333.45 850.484 1334.37 849.762C1336 848.475 1337.63 847.187 1339.26 845.898C1396.73 801.388 1484.31 834 1557 834C1557 1053.12 1557 1272.24 1557 1498C1502.22 1498 1447.44 1498 1391 1498C1391 1331.35 1391 1164.7 1391 993C1384.08 998.187 1377.18 1003.36 1370.38 1008.69C1368.82 1009.9 1367.27 1011.11 1365.71 1012.32C1364.93 1012.93 1364.15 1013.54 1363.35 1014.17C1359.57 1017.12 1355.78 1020.06 1352 1023C1350.51 1024.16 1349.01 1025.33 1347.52 1026.49C1344.46 1028.86 1341.41 1031.23 1338.36 1033.61C1331.56 1038.89 1324.77 1044.17 1318 1049.5C1310.46 1055.43 1302.89 1061.32 1295.31 1067.2C1291.54 1070.13 1287.77 1073.07 1284 1076C1282.5 1077.17 1281 1078.33 1279.5 1079.5C1278.76 1080.08 1278.02 1080.65 1277.25 1081.25C1234.5 1114.5 1234.5 1114.5 1232.25 1116.25C1230.75 1117.41 1229.26 1118.58 1227.76 1119.74C1223.96 1122.7 1220.16 1125.65 1216.36 1128.61C1208.88 1134.42 1201.41 1140.24 1193.98 1146.1C1189.64 1149.51 1185.27 1152.88 1180.88 1156.24C1177.56 1158.79 1174.26 1161.36 1170.97 1163.96C1169.24 1165.32 1167.51 1166.68 1165.77 1168.03C1162.99 1170.21 1160.25 1172.43 1157.51 1174.66C1155.99 1175.88 1154.46 1177.09 1152.94 1178.31C1152.22 1178.91 1151.51 1179.5 1150.77 1180.11C1145.76 1184.08 1145.76 1184.08 1142.52 1183.75C1138.84 1181.19 1135.31 1178.5 1131.81 1175.69C1125.7 1170.85 1119.53 1166.15 1113.19 1161.62C1106.55 1156.89 1100.03 1152.02 1093.56 1147.06C1083.8 1139.58 1073.92 1132.27 1064 1125C1053.17 1117.07 1042.42 1109.05 1031.77 1100.89C1026.24 1096.67 1020.66 1092.54 1015 1088.5C1007.52 1083.15 1000.19 1077.61 992.891 1072.02C984.014 1065.22 975.018 1058.6 966 1052C955.076 1044 944.234 1035.91 933.485 1027.68C928.713 1024.04 923.913 1020.45 919 1017C912.337 1012.32 905.876 1007.38 899.424 1002.41C890.38 995.464 881.189 988.771 872 982C871.67 1152.28 871.34 1322.56 871 1498C819.19 1498 767.38 1498 714 1498C714 1278.88 714 1059.76 714 834ZM722 842C722 1055.51 722 1269.02 722 1489C768.2 1489 814.4 1489 862 1489C862.33 1316.08 862.66 1143.16 863 965C869.27 969.62 875.54 974.24 882 979C885.094 981.269 888.188 983.537 891.375 985.875C899.067 991.526 906.657 997.305 914.234 1003.11C919.761 1007.33 925.344 1011.45 931 1015.5C938.483 1020.85 945.807 1026.39 953.109 1031.98C961.986 1038.78 970.982 1045.4 980 1052C990.829 1059.93 1001.58 1067.95 1012.23 1076.11C1017.76 1080.33 1023.34 1084.45 1029 1088.5C1036.48 1093.85 1043.81 1099.39 1051.11 1104.98C1059.99 1111.78 1068.98 1118.4 1078 1125C1088.01 1132.33 1097.96 1139.71 1107.81 1147.25C1114.76 1152.57 1121.74 1157.79 1128.91 1162.8C1131.02 1164.3 1133.09 1165.85 1135.12 1167.45C1136.09 1168.21 1137.06 1168.97 1138.06 1169.75C1138.9 1170.43 1139.74 1171.1 1140.6 1171.8C1142.92 1173.26 1142.92 1173.26 1145.37 1172.55C1148.86 1170.5 1151.89 1168.08 1155 1165.5C1156.35 1164.4 1157.69 1163.31 1159.04 1162.21C1160.05 1161.39 1160.05 1161.39 1161.07 1160.56C1163.78 1158.37 1166.54 1156.24 1169.31 1154.12C1174.46 1150.19 1179.58 1146.23 1184.69 1142.25C1185.45 1141.66 1186.21 1141.06 1187 1140.45C1188.55 1139.24 1190.11 1138.03 1191.67 1136.81C1195.45 1133.87 1199.22 1130.94 1203 1128C1204.11 1127.14 1204.11 1127.14 1205.24 1126.26C1209.04 1123.3 1212.84 1120.35 1216.64 1117.39C1223.44 1112.11 1230.23 1106.83 1237 1101.5C1244.54 1095.57 1252.11 1089.68 1259.69 1083.8C1263.46 1080.87 1267.23 1077.93 1271 1075C1272.5 1073.83 1274 1072.67 1275.5 1071.5C1276.24 1070.92 1276.98 1070.34 1277.75 1069.75C1304 1049.33 1330.25 1028.92 1356.5 1008.5C1357.24 1007.92 1357.99 1007.34 1358.75 1006.75C1360.25 1005.59 1361.74 1004.42 1363.24 1003.26C1367.06 1000.29 1370.89 997.307 1374.71 994.324C1375.49 993.715 1376.27 993.106 1377.08 992.478C1378.54 991.339 1380 990.198 1381.46 989.057C1387.58 984.286 1393.79 979.659 1400 975C1400 1144.62 1400 1314.24 1400 1489C1448.84 1489 1497.68 1489 1548 1489C1548 1275.49 1548 1061.98 1548 842C1439.19 825.421 1439.19 825.421 1346 852C1339.24 857.243 1339.24 857.243 1336.61 859.238C1332.41 862.444 1328.24 865.69 1324.06 868.937C1323.29 869.538 1322.52 870.138 1321.72 870.757C1316.58 874.762 1311.45 878.783 1306.33 882.816C1301.57 886.562 1296.78 890.283 1292 894C1284.31 899.973 1276.65 905.977 1269 912C1260.58 918.631 1252.14 925.232 1243.67 931.808C1239.1 935.358 1234.55 938.921 1230 942.5C1224.68 946.687 1219.34 950.848 1214 955C1206.31 960.973 1198.65 966.977 1191 973C1182.59 979.623 1174.16 986.224 1165.7 992.781C1162.09 995.585 1158.49 998.402 1154.92 1001.27C1154.29 1001.77 1153.65 1002.28 1153 1002.8C1151.83 1003.73 1150.66 1004.68 1149.5 1005.62C1146.47 1008.05 1143.69 1009.77 1140 1011C1139.11 1010.28 1138.23 1009.57 1137.32 1008.83C1130.47 1003.32 1123.57 997.877 1116.56 992.562C1110.18 987.721 1103.94 982.742 1097.74 977.669C1092.63 973.492 1087.44 969.448 1082.19 965.445C1078.87 962.911 1075.59 960.334 1072.31 957.75C1066.89 953.479 1061.45 949.234 1056 945C1048.88 939.466 1041.77 933.907 1034.69 928.327C1031.79 926.049 1028.9 923.775 1026 921.5C1024.83 920.583 1023.67 919.667 1022.5 918.75C1021.63 918.069 1021.63 918.069 1020.75 917.375C1001.5 902.25 1001.5 902.25 999.751 900.876C998.581 899.956 997.411 899.037 996.241 898.118C993.373 895.865 990.506 893.611 987.641 891.355C981.11 886.216 974.562 881.099 968 876C960.888 870.474 953.796 864.925 946.721 859.353C944.894 857.916 943.064 856.483 941.234 855.051C940.609 854.561 939.985 854.071 939.341 853.567C938.158 852.641 936.976 851.715 935.792 850.79C935.252 850.367 934.712 849.944 934.156 849.508C933.69 849.143 933.224 848.778 932.744 848.403C930.134 846.304 927.573 844.144 925 842C858.01 842 791.02 842 722 842Z" fill="#2B2B2A"/>
<path d="M906 1059C908.766 1060.35 911.065 1061.72 913.434 1063.69C914.076 1064.22 914.718 1064.74 915.379 1065.29C916.058 1065.85 916.738 1066.42 917.438 1067C922.401 1071.08 927.386 1075.11 932.5 1079C938.087 1083.26 943.543 1087.66 948.984 1092.11C955.587 1097.5 962.283 1102.76 969 1108C976.33 1113.72 983.616 1119.49 990.813 1125.38C996.273 1129.84 1001.81 1134.18 1007.44 1138.44C1014.04 1143.44 1020.46 1148.61 1026.83 1153.9C1033.45 1159.4 1040.21 1164.71 1047 1170C1055.08 1176.3 1063.09 1182.68 1071.03 1189.16C1077.06 1194.07 1083.16 1198.88 1089.29 1203.66C1091.01 1205.01 1092.73 1206.36 1094.46 1207.71C1095 1208.13 1095.54 1208.56 1096.1 1208.99C1097.26 1209.9 1098.41 1210.82 1099.55 1211.74C1102.57 1214.18 1105.6 1216.42 1108.91 1218.45C1114.48 1222.04 1119.84 1225.57 1121.35 1232.36C1122.03 1237.69 1121.84 1243.01 1121.68 1248.37C1121.68 1250.46 1121.68 1252.55 1121.69 1254.63C1121.69 1259.17 1121.64 1263.71 1121.56 1268.25C1121.43 1275.54 1121.39 1282.83 1121.37 1290.13C1121.35 1298.12 1121.31 1306.1 1121.23 1314.09C1121.22 1314.78 1121.21 1315.48 1121.21 1316.2C1121.2 1317.26 1121.2 1317.26 1121.19 1318.34C1120.98 1339.12 1120.97 1359.9 1121 1380.69C1121.01 1385.21 1121.02 1389.73 1121.02 1394.26C1121.03 1396.06 1121.03 1397.87 1121.03 1399.67C1121.03 1400.56 1121.03 1401.45 1121.03 1402.37C1121.04 1404.17 1121.04 1405.97 1121.04 1407.77C1121.08 1437.85 1121.03 1467.92 1121 1498C1094.27 1498 1067.54 1498 1040 1498C1040.05 1491.23 1040.1 1484.46 1040.16 1477.49C1040.32 1455.82 1040.43 1434.14 1040.51 1412.47C1040.52 1409.1 1040.54 1405.73 1040.55 1402.36C1040.55 1401.69 1040.55 1401.02 1040.56 1400.33C1040.6 1389.48 1040.68 1378.64 1040.77 1367.79C1040.87 1356.65 1040.92 1345.52 1040.94 1334.38C1040.95 1328.13 1040.98 1321.87 1041.06 1315.62C1041.13 1309.73 1041.15 1303.85 1041.13 1297.96C1041.13 1295.8 1041.15 1293.64 1041.19 1291.48C1041.75 1280.07 1041.75 1280.07 1037.8 1269.75C1035.3 1267.47 1032.9 1265.72 1030 1264C1029.05 1263.2 1028.09 1262.4 1027.11 1261.57C1026.33 1260.95 1025.55 1260.33 1024.75 1259.69C1019.93 1255.79 1015.22 1251.78 1010.56 1247.69C1004.57 1242.49 998.333 1237.87 992 1233C992 1320.45 992 1407.9 992 1498C963.29 1498 934.58 1498 905 1498C904.958 1463.82 904.958 1463.82 904.949 1449.97C904.949 1449.12 904.948 1448.27 904.948 1447.39C904.944 1440.97 904.941 1434.55 904.938 1428.12C904.937 1427.21 904.937 1426.3 904.936 1425.36C904.899 1344.73 905.173 1264.1 905.491 1183.47C905.5 1181.18 905.509 1178.89 905.518 1176.59C905.673 1137.4 905.833 1098.2 906 1059ZM915 1077C914.31 1142.49 913.899 1207.98 913.902 1273.47C913.902 1274.27 913.902 1275.06 913.903 1275.88C913.903 1296.02 913.914 1316.17 913.928 1336.32C913.936 1347.99 913.941 1359.65 913.945 1371.32C913.945 1372.16 913.946 1372.99 913.946 1373.86C913.947 1378.06 913.949 1382.27 913.95 1386.48C913.96 1420.65 913.978 1454.83 914 1489C936.77 1489 959.54 1489 983 1489C983 1398.25 983 1307.5 983 1214C995.412 1224.16 995.412 1224.16 1001 1229C1005.12 1232.56 1009.27 1236.07 1013.5 1239.5C1017.73 1242.93 1021.88 1246.45 1026 1250C1035.96 1258.82 1035.96 1258.82 1046.61 1266.71C1049 1269 1049 1269 1049.61 1272C1049.6 1273.77 1049.6 1273.77 1049.58 1275.58C1049.59 1276.57 1049.59 1276.57 1049.59 1277.58C1049.59 1279.81 1049.56 1282.03 1049.52 1284.25C1049.52 1285.85 1049.51 1287.46 1049.51 1289.06C1049.5 1293.45 1049.45 1297.84 1049.4 1302.23C1049.36 1306.89 1049.34 1311.55 1049.31 1316.2C1049.25 1327.39 1049.15 1338.58 1049.03 1349.77C1048.98 1355.24 1048.93 1360.71 1048.88 1366.18C1048.72 1383.6 1048.56 1401.02 1048.36 1418.44C1048.08 1442.3 1047.95 1466.14 1048 1490C1069.12 1490 1090.24 1490 1112 1490C1112.29 1457.3 1112.53 1424.61 1112.66 1391.91C1112.68 1388.05 1112.7 1384.18 1112.71 1380.32C1112.72 1379.17 1112.72 1379.17 1112.72 1377.99C1112.78 1365.55 1112.88 1353.11 1113 1340.67C1113.12 1327.89 1113.2 1315.12 1113.22 1302.35C1113.24 1294.47 1113.3 1286.6 1113.4 1278.72C1113.48 1272.67 1113.49 1266.63 1113.47 1260.58C1113.47 1258.11 1113.5 1255.63 1113.55 1253.15C1114.43 1239.88 1114.43 1239.88 1109.15 1228.37C1106.02 1225.69 1102.65 1223.87 1099 1222C1097.62 1220.97 1096.26 1219.9 1094.94 1218.79C1094.38 1218.33 1093.82 1217.88 1093.24 1217.41C1092.68 1216.97 1092.13 1216.52 1091.56 1216.06C1086.75 1212.2 1081.92 1208.36 1077.06 1204.56C1072.05 1200.65 1067.11 1196.65 1062.19 1192.62C1056.73 1188.16 1051.19 1183.82 1045.56 1179.56C1038.96 1174.56 1032.54 1169.39 1026.17 1164.1C1019.55 1158.6 1012.79 1153.29 1006 1148C997.919 1141.7 989.908 1135.32 981.966 1128.84C975.377 1123.47 968.698 1118.23 962 1113C954.611 1107.23 947.264 1101.42 940 1095.5C934.75 1091.22 929.491 1086.96 924.188 1082.75C923.607 1082.28 923.026 1081.82 922.428 1081.34C919.951 1079.38 918.022 1078.01 915 1077Z" fill="#2A2C29"/>
<path d="M1362 1157C1362.26 1168.95 1362.45 1180.9 1362.57 1192.86C1362.63 1198.41 1362.7 1203.96 1362.83 1209.51C1362.95 1214.87 1363.02 1220.23 1363.04 1225.6C1363.06 1227.64 1363.1 1229.68 1363.16 1231.72C1363.63 1248.52 1363.63 1248.52 1359.66 1253.39C1356.9 1255.94 1354.15 1257.97 1351 1260C1349.24 1261.42 1347.48 1262.85 1345.75 1264.31C1344.85 1265.04 1343.94 1265.77 1343.01 1266.53C1339.49 1269.42 1336.06 1272.39 1332.63 1275.38C1326.79 1280.46 1320.92 1285.48 1315 1290.46C1311.65 1293.29 1308.32 1296.14 1305 1299C1309.09 1313.28 1313.36 1327.5 1317.79 1341.68C1320.04 1348.88 1322.23 1356.09 1324.34 1363.33C1325.8 1368.36 1327.34 1373.36 1328.92 1378.35C1330.97 1384.87 1332.99 1391.4 1335 1397.94C1335.32 1398.97 1335.64 1400.01 1335.97 1401.07C1337.81 1407.04 1339.59 1413.01 1341.34 1419C1344.28 1429.04 1347.39 1439.02 1350.5 1449C1353.87 1459.81 1357.23 1470.62 1360.38 1481.5C1361.23 1484.42 1362.11 1487.3 1363.14 1490.16C1364 1493 1364 1493 1364 1498C1337.27 1498 1310.54 1498 1283 1498C1270.51 1458.46 1270.51 1458.46 1265.48 1439.13C1264.14 1434.03 1262.71 1429.01 1261 1424.02C1258.92 1417.89 1257.25 1411.7 1255.63 1405.44C1253.35 1396.81 1250.9 1388.29 1248.14 1379.81C1245.4 1371.31 1243.19 1362.66 1241 1354C1240.01 1354.66 1239.02 1355.32 1238 1356C1237.54 1358.57 1237.54 1358.57 1237.6 1361.63C1237.58 1363.43 1237.58 1363.43 1237.56 1365.26C1237.56 1366.59 1237.57 1367.93 1237.57 1369.26C1237.56 1370.66 1237.55 1372.06 1237.54 1373.46C1237.51 1377.27 1237.5 1381.07 1237.49 1384.88C1237.48 1388.85 1237.46 1392.83 1237.43 1396.8C1237.39 1404.33 1237.36 1411.86 1237.34 1419.39C1237.31 1429.56 1237.25 1439.73 1237.2 1449.91C1237.11 1465.94 1237.06 1481.97 1237 1498C1210.27 1498 1183.54 1498 1156 1498C1155.67 1463.55 1155.39 1429.11 1155.23 1394.66C1155.22 1390.59 1155.2 1386.52 1155.18 1382.45C1155.17 1381.64 1155.17 1380.83 1155.16 1379.99C1155.1 1366.89 1154.98 1353.78 1154.84 1340.67C1154.7 1327.22 1154.62 1313.76 1154.59 1300.31C1154.57 1292.01 1154.5 1283.71 1154.38 1275.41C1154.3 1269.72 1154.28 1264.02 1154.3 1258.32C1154.31 1255.04 1154.28 1251.76 1154.21 1248.48C1153.78 1227.76 1153.78 1227.76 1159.29 1221.84C1162.37 1219.12 1165.66 1216.97 1169.25 1214.99C1171.55 1213.69 1173.57 1212.11 1175.62 1210.44C1176.89 1209.48 1178.16 1208.52 1179.44 1207.56C1185.07 1203.29 1190.6 1198.92 1196.06 1194.44C1201.94 1189.61 1207.93 1184.99 1214.04 1180.48C1219.59 1176.36 1224.98 1172.06 1230.3 1167.66C1234.79 1164 1234.79 1164 1237 1164C1237 1193.04 1237 1222.08 1237 1252C1246.71 1244.72 1256.4 1237.42 1266 1230C1268.06 1228.42 1270.12 1226.83 1272.19 1225.25C1277.39 1221.25 1282.57 1217.22 1287.75 1213.19C1295.82 1206.9 1303.93 1200.68 1312.06 1194.48C1317.05 1190.67 1322.02 1186.83 1327 1183C1329.7 1180.92 1332.41 1178.84 1335.12 1176.76C1337.89 1174.63 1340.66 1172.49 1343.43 1170.36C1348.19 1166.69 1352.96 1163.01 1357.75 1159.38C1358.67 1158.68 1358.67 1158.68 1359.61 1157.96C1361 1157 1361 1157 1362 1157ZM1347.25 1178.38C1346.06 1179.3 1344.86 1180.22 1343.67 1181.15C1343.06 1181.62 1342.45 1182.1 1341.82 1182.59C1339.05 1184.74 1336.28 1186.87 1333.5 1189C1332.42 1189.83 1331.33 1190.67 1330.25 1191.5C1323.75 1196.5 1323.75 1196.5 1322.13 1197.75C1321.04 1198.59 1319.95 1199.42 1318.86 1200.26C1316.22 1202.29 1313.57 1204.33 1310.93 1206.36C1304.68 1211.15 1298.46 1215.97 1292.25 1220.81C1284.18 1227.1 1276.05 1233.33 1267.92 1239.54C1261.4 1244.51 1254.9 1249.51 1248.44 1254.55C1247.64 1255.18 1246.85 1255.8 1246.03 1256.44C1244.47 1257.65 1242.91 1258.87 1241.35 1260.09C1240.63 1260.66 1239.91 1261.22 1239.16 1261.8C1238.53 1262.3 1237.89 1262.79 1237.24 1263.31C1234.21 1265.6 1231.1 1267.79 1228 1270C1228 1240.63 1228 1211.26 1228 1181C1218.11 1188.42 1208.31 1195.95 1198.59 1203.61C1192.94 1208.06 1187.26 1212.47 1181.57 1216.88C1180.16 1217.97 1178.77 1219.08 1177.4 1220.21C1175 1222 1175 1222 1172.42 1223.22C1168.97 1225.12 1167.22 1226.71 1165 1230C1163 1237.98 1163.74 1246.62 1163.86 1254.78C1163.87 1257.34 1163.87 1259.9 1163.86 1262.46C1163.86 1267.98 1163.89 1273.49 1163.94 1279C1164.02 1286.96 1164.05 1294.93 1164.06 1302.9C1164.08 1315.83 1164.15 1328.76 1164.25 1341.69C1164.34 1354.24 1164.41 1366.8 1164.45 1379.36C1164.45 1380.13 1164.46 1380.9 1164.46 1381.7C1164.47 1385.59 1164.48 1389.47 1164.5 1393.36C1164.6 1425.57 1164.78 1457.79 1165 1490C1185.79 1490 1206.58 1490 1228 1490C1227.93 1480.17 1227.87 1470.33 1227.8 1460.2C1227.78 1453.96 1227.77 1447.72 1227.77 1441.48C1227.77 1431.58 1227.76 1421.69 1227.67 1411.79C1227.6 1404.58 1227.58 1397.37 1227.6 1390.16C1227.61 1386.35 1227.61 1382.53 1227.55 1378.72C1227.16 1352.37 1227.16 1352.37 1233.15 1346.1C1235.6 1344.04 1238.16 1342.48 1241 1341C1242.67 1340 1244.33 1339 1246 1338C1246.23 1339.3 1246.45 1340.6 1246.69 1341.94C1248.07 1348.78 1250.13 1355.41 1252.13 1362.09C1253.77 1367.6 1255.37 1373.12 1256.97 1378.64C1257.55 1380.63 1258.12 1382.62 1258.7 1384.61C1260.48 1390.73 1262.25 1396.86 1264 1402.99C1266.14 1410.5 1268.32 1418 1270.5 1425.5C1273.36 1435.33 1276.19 1445.16 1279 1455C1279.86 1458.01 1280.72 1461.02 1281.58 1464.02C1281.98 1465.42 1282.38 1466.82 1282.78 1468.22C1283.26 1469.92 1283.75 1471.62 1284.25 1473.38C1285.82 1478.86 1287.39 1484.35 1289 1490C1310.12 1490 1331.24 1490 1353 1490C1352.27 1484.34 1352.27 1484.34 1350.8 1479.12C1350.56 1478.44 1350.33 1477.76 1350.08 1477.05C1349.83 1476.34 1349.57 1475.62 1349.31 1474.88C1347.05 1468.3 1345 1461.7 1343.13 1455C1339.95 1443.67 1336.47 1432.44 1332.99 1421.2C1331.46 1416.24 1329.95 1411.28 1328.44 1406.31C1328.15 1405.38 1327.87 1404.44 1327.57 1403.47C1327 1401.59 1326.43 1399.71 1325.86 1397.83C1324.41 1393.05 1322.95 1388.28 1321.5 1383.5C1319.76 1377.79 1318.02 1372.07 1316.29 1366.36C1312.24 1353.03 1308.15 1339.72 1304.05 1326.41C1302.2 1320.4 1300.35 1314.39 1298.5 1308.38C1297.82 1306.17 1297.15 1303.97 1296.47 1301.77C1295.98 1300.18 1295.49 1298.59 1295 1297C1302.59 1289.33 1310.6 1282.25 1318.99 1275.47C1322.51 1272.58 1325.94 1269.61 1329.38 1266.62C1334.29 1262.35 1339.22 1258.09 1344.19 1253.88C1344.72 1253.43 1345.24 1252.98 1345.79 1252.51C1349.83 1249.09 1349.83 1249.09 1352.14 1247.79C1354.31 1246.06 1354.31 1246.06 1354.48 1242.91C1354.47 1241.63 1354.46 1240.36 1354.45 1239.05C1354.45 1238.35 1354.46 1237.64 1354.46 1236.92C1354.45 1234.6 1354.42 1232.28 1354.39 1229.96C1354.38 1228.35 1354.38 1226.74 1354.37 1225.13C1354.36 1220.89 1354.32 1216.65 1354.27 1212.42C1354.23 1208.09 1354.22 1203.77 1354.2 1199.45C1354.15 1190.96 1354.08 1182.48 1354 1174C1351.66 1174 1349.09 1176.94 1347.25 1178.38Z" fill="#292B29"/>
<path d="M907 1225C907.33 1225 907.66 1225 908 1225C908.023 1257.94 908.041 1290.87 908.051 1323.81C908.052 1327.7 908.054 1331.59 908.055 1335.48C908.055 1336.25 908.055 1337.03 908.056 1337.83C908.06 1350.36 908.068 1362.89 908.077 1375.42C908.087 1388.29 908.092 1401.15 908.094 1414.02C908.095 1421.95 908.1 1429.88 908.108 1437.82C908.114 1443.91 908.114 1450 908.113 1456.09C908.113 1458.58 908.115 1461.08 908.119 1463.57C908.124 1466.98 908.123 1470.39 908.12 1473.81C908.123 1474.79 908.126 1475.77 908.129 1476.78C908.115 1483.29 907.595 1489.45 907 1496C934.06 1496 961.12 1496 989 1496C989 1407.23 989 1318.46 989 1227C992.062 1228.53 993.839 1229.55 996.285 1231.72C996.892 1232.26 997.5 1232.79 998.125 1233.34C999.084 1234.19 999.084 1234.19 1000.06 1235.06C1001.42 1236.25 1002.77 1237.44 1004.12 1238.62C1004.79 1239.21 1005.45 1239.79 1006.13 1240.38C1008.57 1242.49 1011.06 1244.53 1013.56 1246.56C1018.33 1250.42 1022.98 1254.39 1027.62 1258.4C1028.15 1258.87 1028.69 1259.33 1029.25 1259.81C1029.79 1260.29 1030.32 1260.77 1030.87 1261.26C1033.03 1263.1 1033.03 1263.1 1035.73 1264.73C1040.18 1267.76 1043.45 1270.08 1044.97 1275.39C1045.27 1279.49 1045.24 1283.44 1045.07 1287.54C1045.05 1289.02 1045.04 1290.51 1045.03 1292C1044.99 1295.9 1044.88 1299.79 1044.76 1303.68C1044.64 1307.66 1044.59 1311.64 1044.54 1315.62C1044.42 1323.42 1044.23 1331.21 1044 1339C1043.67 1339 1043.34 1339 1043 1339C1042.03 1316.99 1041.88 1295.03 1042 1273C1041.4 1272.72 1040.81 1272.44 1040.19 1272.16C1036.88 1270.41 1034.23 1267.9 1031.44 1265.44C1030.18 1264.34 1028.91 1263.25 1027.65 1262.15C1027.03 1261.61 1026.41 1261.07 1025.77 1260.52C1023.38 1258.47 1020.95 1256.48 1018.5 1254.5C1013.59 1250.52 1008.79 1246.41 1004.03 1242.25C1003.48 1241.77 1002.93 1241.29 1002.36 1240.8C1001.88 1240.38 1001.4 1239.96 1000.91 1239.53C998.033 1237.23 994.995 1235.14 992 1233C992 1320.45 992 1407.9 992 1498C963.29 1498 934.58 1498 905 1498C904.958 1456.52 904.958 1456.52 904.949 1441.49C904.948 1440.55 904.948 1439.61 904.947 1438.64C904.881 1318.76 904.881 1318.76 905.406 1267.86C905.438 1264.75 905.467 1261.63 905.497 1258.52C905.543 1253.76 905.595 1249 905.653 1244.24C905.673 1242.55 905.692 1240.86 905.709 1239.17C905.733 1236.93 905.763 1234.7 905.795 1232.46C905.81 1231.22 905.826 1229.99 905.842 1228.71C906 1226 906 1226 907 1225Z" fill="#332F33"/>
<path d="M906 1059C909.001 1060.5 910.944 1061.62 913.434 1063.69C914.076 1064.22 914.717 1064.74 915.379 1065.29C916.058 1065.85 916.738 1066.42 917.438 1067C922.401 1071.08 927.386 1075.11 932.5 1079C938.087 1083.26 943.542 1087.66 948.984 1092.11C955.587 1097.5 962.283 1102.76 969 1108C976.33 1113.72 983.616 1119.49 990.812 1125.38C996.273 1129.84 1001.81 1134.18 1007.44 1138.44C1014.04 1143.44 1020.46 1148.61 1026.83 1153.9C1033.45 1159.4 1040.21 1164.71 1047 1170C1055.08 1176.3 1063.09 1182.68 1071.03 1189.16C1077.06 1194.07 1083.16 1198.88 1089.29 1203.66C1091.01 1205.01 1092.73 1206.36 1094.46 1207.71C1095 1208.13 1095.54 1208.56 1096.1 1208.99C1097.26 1209.9 1098.41 1210.82 1099.55 1211.74C1102.57 1214.18 1105.6 1216.42 1108.91 1218.45C1114.48 1222.04 1119.84 1225.57 1121.35 1232.36C1122.03 1237.69 1121.84 1243.01 1121.68 1248.37C1121.68 1250.46 1121.68 1252.55 1121.69 1254.63C1121.69 1259.17 1121.64 1263.71 1121.56 1268.25C1121.43 1275.54 1121.39 1282.83 1121.37 1290.13C1121.35 1298.12 1121.31 1306.1 1121.23 1314.09C1121.22 1314.78 1121.21 1315.48 1121.21 1316.2C1121.2 1317.26 1121.2 1317.26 1121.19 1318.34C1120.98 1339.12 1120.97 1359.9 1121 1380.69C1121.01 1385.21 1121.02 1389.73 1121.02 1394.26C1121.03 1396.06 1121.03 1397.87 1121.03 1399.67C1121.03 1400.56 1121.03 1401.45 1121.03 1402.37C1121.04 1404.17 1121.04 1405.97 1121.04 1407.77C1121.07 1427.72 1121.06 1447.68 1121.04 1467.63C1121.03 1469.21 1121.03 1470.79 1121.03 1472.37C1121.02 1480.91 1121.01 1489.46 1121 1498C1120.01 1497.34 1119.02 1496.68 1118 1496C1117.62 1494.08 1117.62 1494.08 1117.62 1491.68C1117.61 1490.77 1117.6 1489.85 1117.6 1488.91C1117.6 1487.9 1117.61 1486.89 1117.61 1485.85C1117.61 1484.79 1117.6 1483.72 1117.6 1482.62C1117.58 1479.02 1117.59 1475.42 1117.6 1471.82C1117.59 1469.25 1117.59 1466.67 1117.58 1464.1C1117.56 1458.55 1117.56 1453 1117.56 1447.45C1117.56 1439.42 1117.55 1431.39 1117.52 1423.36C1117.49 1410.32 1117.47 1397.28 1117.46 1384.24C1117.46 1383.46 1117.45 1382.68 1117.45 1381.87C1117.45 1378.71 1117.45 1375.55 1117.44 1372.38C1117.44 1363.68 1117.43 1354.98 1117.41 1346.28C1117.41 1345.11 1117.41 1345.11 1117.41 1343.92C1117.39 1330.94 1117.37 1317.95 1117.34 1304.97C1117.32 1296.96 1117.31 1288.95 1117.3 1280.94C1117.3 1274.8 1117.29 1268.66 1117.28 1262.52C1117.27 1260 1117.27 1257.48 1117.28 1254.96C1117.28 1251.53 1117.27 1248.09 1117.26 1244.65C1117.26 1243.15 1117.26 1243.15 1117.27 1241.62C1117.28 1233.4 1117.28 1233.4 1113.53 1226.3C1112.96 1225.86 1112.38 1225.41 1111.8 1224.96C1111.15 1224.45 1110.51 1223.94 1109.85 1223.41C1109.16 1222.88 1108.46 1222.36 1107.75 1221.81C1107.03 1221.25 1106.32 1220.69 1105.58 1220.11C1104.1 1218.95 1102.62 1217.8 1101.14 1216.65C1099.19 1215.15 1097.25 1213.63 1095.32 1212.1C1091.89 1209.38 1088.45 1206.69 1085 1204C1076.92 1197.69 1068.91 1191.32 1060.97 1184.84C1054.38 1179.47 1047.7 1174.23 1041 1169C1033.67 1163.28 1026.38 1157.51 1019.19 1151.62C1013.73 1147.16 1008.19 1142.82 1002.56 1138.56C995.962 1133.56 989.54 1128.39 983.171 1123.1C976.546 1117.6 969.791 1112.29 963 1107C954.923 1100.7 946.915 1094.32 938.977 1087.85C929.437 1080.08 919.711 1072.55 910 1065C909.67 1092.06 909.34 1119.12 909 1147C908.34 1147 907.68 1147 907 1147C907 1163.83 907 1180.66 907 1198C906.67 1198 906.34 1198 906 1198C906 1152.13 906 1106.26 906 1059Z" fill="#343035"/>
<path d="M1156 1226C1156.33 1226 1156.66 1226 1157 1226C1157 1315.1 1157 1404.2 1157 1496C1182.41 1496 1207.82 1496 1234 1496C1233.92 1485.89 1233.84 1475.78 1233.75 1465.37C1233.72 1458.97 1233.68 1452.57 1233.66 1446.17C1233.62 1436.01 1233.57 1425.85 1233.47 1415.69C1233.4 1408.3 1233.36 1400.9 1233.34 1393.5C1233.33 1389.58 1233.31 1385.66 1233.26 1381.75C1233.21 1378.06 1233.2 1374.37 1233.21 1370.68C1233.21 1368.69 1233.17 1366.69 1233.13 1364.69C1233.2 1356.13 1233.2 1356.13 1235.54 1352.83C1239.83 1349 1239.83 1349 1243 1349C1243 1350.65 1243 1352.3 1243 1354C1242.04 1354.22 1242.04 1354.22 1241.06 1354.44C1239.02 1354.81 1239.02 1354.81 1238 1356C1237.89 1357.83 1237.85 1359.67 1237.84 1361.51C1237.83 1362.71 1237.82 1363.9 1237.81 1365.14C1237.81 1366.47 1237.8 1367.81 1237.79 1369.15C1237.79 1370.55 1237.78 1371.95 1237.76 1373.35C1237.74 1377.16 1237.72 1380.97 1237.7 1384.78C1237.67 1388.75 1237.65 1392.73 1237.62 1396.71C1237.57 1404.24 1237.53 1411.78 1237.48 1419.32C1237.42 1429.5 1237.36 1439.68 1237.29 1449.86C1237.19 1465.91 1237.09 1481.95 1237 1498C1210.27 1498 1183.54 1498 1156 1498C1156 1408.24 1156 1318.48 1156 1226Z" fill="#353136"/>
<path d="M1235 1164C1235.66 1164 1236.32 1164 1237 1164C1237 1193.04 1237 1222.08 1237 1252C1237.66 1252.33 1238.32 1252.66 1239 1253C1238.67 1253.99 1238.34 1254.98 1238 1256C1236.02 1256.99 1236.02 1256.99 1234 1258C1233.67 1228.96 1233.34 1199.92 1233 1170C1232.34 1169.67 1231.68 1169.34 1231 1169C1232.28 1167.29 1233.62 1165.63 1235 1164Z" fill="#39363A"/>
<path d="M1041 1448C1041.33 1448 1041.66 1448 1042 1448C1042 1463.84 1042 1479.68 1042 1496C1067.74 1495.67 1093.48 1495.34 1120 1495C1120 1495.99 1120 1496.98 1120 1498C1093.6 1498 1067.2 1498 1040 1498C1039.98 1489.94 1039.96 1481.87 1039.94 1473.56C1039.92 1469.74 1039.92 1469.74 1039.91 1465.84C1039.91 1463.83 1039.9 1461.82 1039.9 1459.82C1039.9 1458.76 1039.89 1457.71 1039.89 1456.63C1039.89 1455.63 1039.89 1454.64 1039.89 1453.61C1039.88 1452.74 1039.88 1451.88 1039.88 1450.98C1040 1449 1040 1449 1041 1448Z" fill="#211D22"/>
<path d="M1361 1157C1361.33 1157 1361.66 1157 1362 1157C1362.16 1169.02 1362.29 1181.04 1362.36 1193.07C1362.4 1198.65 1362.45 1204.23 1362.53 1209.81C1362.6 1215.2 1362.65 1220.59 1362.66 1225.98C1362.68 1228.03 1362.7 1230.09 1362.74 1232.14C1362.79 1235.02 1362.8 1237.9 1362.79 1240.78C1362.82 1241.63 1362.85 1242.48 1362.87 1243.35C1362.83 1246.92 1362.75 1249.12 1360.39 1251.9C1358.65 1253.4 1356.91 1254.74 1355 1256C1355 1255.01 1355 1254.02 1355 1253C1355.65 1252.45 1356.3 1251.9 1356.97 1251.34C1359.88 1247.99 1359.57 1244.79 1359.55 1240.56C1359.56 1239.71 1359.57 1238.86 1359.58 1237.99C1359.61 1235.18 1359.61 1232.38 1359.61 1229.58C1359.62 1227.63 1359.64 1225.69 1359.66 1223.74C1359.7 1218.63 1359.72 1213.51 1359.74 1208.4C1359.76 1203.17 1359.8 1197.95 1359.84 1192.73C1359.92 1182.49 1359.97 1172.24 1360 1162C1359.34 1161.67 1358.68 1161.34 1358 1161C1358.97 1159.65 1359.97 1158.31 1361 1157Z" fill="#201C21"/>
<path d="M1283 1491C1283.66 1492.32 1284.32 1493.64 1285 1495C1310.08 1495 1335.16 1495 1361 1495C1361 1494.01 1361 1493.02 1361 1492C1361.99 1492.33 1362.98 1492.66 1364 1493C1364 1494.65 1364 1496.3 1364 1498C1337.27 1498 1310.54 1498 1283 1498C1282.67 1496.02 1282.34 1494.04 1282 1492C1282.33 1491.67 1282.66 1491.34 1283 1491Z" fill="#201C21"/>
<path d="M907 1147C907.66 1147 908.32 1147 909 1147C909.046 1156.27 909.082 1165.53 909.104 1174.8C909.114 1179.1 909.128 1183.41 909.151 1187.71C909.173 1191.87 909.185 1196.02 909.19 1200.18C909.193 1201.76 909.201 1203.34 909.212 1204.93C909.226 1207.15 909.228 1209.37 909.227 1211.6C909.232 1212.86 909.236 1214.12 909.241 1215.42C908.981 1219.28 908.189 1222.34 907 1226C906.67 1226 906.34 1226 906 1226C905.763 1199.66 906.428 1173.33 907 1147Z" fill="#232023"/>
<path d="M1276 1472C1276.66 1472 1277.32 1472 1278 1472C1279.32 1475.62 1280 1478.1 1280 1482C1279.34 1482 1278.68 1482 1278 1482C1277.34 1478.7 1276.68 1475.4 1276 1472Z" fill="#232024"/>
<path d="M1263 1427C1263.66 1427 1264.32 1427 1265 1427C1266.32 1430.62 1267 1433.1 1267 1437C1266.34 1437 1265.68 1437 1265 1437C1264.34 1433.7 1263.68 1430.4 1263 1427Z" fill="#232024"/>
<path d="M1250 1382C1250.66 1382 1251.32 1382 1252 1382C1253.32 1385.62 1254 1388.1 1254 1392C1253.34 1392 1252.68 1392 1252 1392C1251.34 1388.7 1250.68 1385.4 1250 1382Z" fill="#232024"/>
<path d="M1358 1477C1360.13 1480.19 1360.5 1482.27 1361 1486C1360.01 1485.67 1359.02 1485.34 1358 1485C1356.88 1479.25 1356.88 1479.25 1358 1477Z" fill="#383539"/>
<path d="M1351 1454C1353.13 1457.19 1353.5 1459.27 1354 1463C1353.01 1462.67 1352.02 1462.34 1351 1462C1349.88 1456.25 1349.88 1456.25 1351 1454Z" fill="#3A363B"/>
<path d="M1347 1441C1349.13 1444.19 1349.5 1446.27 1350 1450C1349.01 1449.67 1348.02 1449.34 1347 1449C1345.88 1443.25 1345.88 1443.25 1347 1441Z" fill="#383438"/>
<path d="M1344 1431C1346.13 1434.19 1346.5 1436.27 1347 1440C1346.01 1439.67 1345.02 1439.34 1344 1439C1342.88 1433.25 1342.88 1433.25 1344 1431Z" fill="#3C383C"/>
<path d="M1340 1418C1342.13 1421.19 1342.5 1423.27 1343 1427C1342.01 1426.67 1341.02 1426.34 1340 1426C1338.88 1420.25 1338.88 1420.25 1340 1418Z" fill="#39363A"/>
<path d="M1333 1395C1335.13 1398.19 1335.5 1400.27 1336 1404C1335.01 1403.67 1334.02 1403.34 1333 1403C1331.88 1397.25 1331.88 1397.25 1333 1395Z" fill="#3B373B"/>
<path d="M1329 1382C1331.13 1385.19 1331.5 1387.27 1332 1391C1331.01 1390.67 1330.02 1390.34 1329 1390C1327.88 1384.25 1327.88 1384.25 1329 1382Z" fill="#383539"/>
<path d="M1322 1359C1324.13 1362.19 1324.5 1364.27 1325 1368C1324.01 1367.67 1323.02 1367.34 1322 1367C1320.88 1361.25 1320.88 1361.25 1322 1359Z" fill="#3A363B"/>
<path d="M1318 1346C1320.13 1349.19 1320.5 1351.27 1321 1355C1320.01 1354.67 1319.02 1354.34 1318 1354C1316.88 1348.25 1316.88 1348.25 1318 1346Z" fill="#373438"/>
<path d="M1315 1336C1317.13 1339.19 1317.5 1341.27 1318 1345C1317.01 1344.67 1316.02 1344.34 1315 1344C1313.88 1338.25 1313.88 1338.25 1315 1336Z" fill="#3B383C"/>
<path d="M1311 1323C1313.13 1326.19 1313.5 1328.27 1314 1332C1313.01 1331.67 1312.02 1331.34 1311 1331C1309.88 1325.25 1309.88 1325.25 1311 1323Z" fill="#39353A"/>
<path d="M1303 1302C1303.99 1302.33 1304.98 1302.66 1306 1303C1306.33 1304.98 1306.66 1306.96 1307 1309C1306.01 1308.67 1305.02 1308.34 1304 1308C1303.67 1306.02 1303.34 1304.04 1303 1302Z" fill="#363237"/>
</g>
<defs>
<clipPath id="clip0_4_2">
<rect width="2315" height="2454" fill="white"/>
</clipPath>
</defs>
</svg>
